# xmcd
#
# Track frame offsets:
#	150
#	24497
#	38269
#	48801
#	73753
#	90142
#	99917
#	111624
#	138340
#	150935
#	162631
#	173238
#	181880
#	193597
#	204849
#	211879
#	226364
#	237538
#	250499
#	274054
#	285327
#
# Disc length: 3993 seconds
#
# Revision: 0
# Processed by: cddbd v1.5.1PL0 Copyright (c) Steve Scherf et al.
# Submitted via: dBpowerAMP V4.0
#
DISCID=150f9715
DTITLE=Various Artist - Country Greats Volume 3
DYEAR=1900
DGENRE=
TTITLE0=Rose Garden -- Lynn Anderson
TTITLE1=A House Without Love Is Not A Home -- George Jones
TTITLE2=I'm Gonna Sing You A Sad Song Susie -- Kenny Rogers
TTITLE3=Dream baby -- Waylon Jennings
TTITLE4=Look What They've Done To My Song -- Billie Jo Spears
TTITLE5=Any Old Arms Won't Do -- Willie Nelson
TTITLE6=The Three Bells -- Slim Whitman
TTITLE7=16 Tons -- Merle Travis
TTITLE8=You Can't Put The City In The Country Girl -- Barbara Fairchild
TTITLE9=The Shelter Of His Arms -- Oakridge Boys
TTITLE10=Things Have Gone To Pieces -- George Jones
TTITLE11=Stand By Your Man -- Lynn Anderson
TTITLE12=Strange Lady In Town -- Frankie Lane
TTITLE13=Have I Stayed Away Too Long -- Tex Ritter
TTITLE14=Jolie Blond -- Waylon Jennings
TTITLE15=I've Loved And Lost Again -- Patsy Cline
TTITLE16=The Last Thing On My Mind -- Ann Murray
TTITLE17=Both Ends Of The Candle -- Willie Nelson
TTITLE18=I'll Never Be Free -- Billie Jo Spears
TTITLE19=Singin' The Blues -- Slim Whitman
TTITLE20=Top Of The World -- Lynn Anderson
EXTD=Bob Dunham
EXTT0=
EXTT1=
EXTT2=
EXTT3=
EXTT4=
EXTT5=
EXTT6=
EXTT7=
EXTT8=
EXTT9=
EXTT10=
EXTT11=
EXTT12=
EXTT13=
EXTT14=
EXTT15=
EXTT16=
EXTT17=
EXTT18=
EXTT19=
EXTT20=
PLAYORDER=
